<?xml version="1.0" standalone="no"?>
<!DOCTYPE svg PUBLIC "-//W3C//DTD SVG 20010904//EN"
 "http://www.w3.org/TR/2001/REC-SVG-20010904/DTD/svg10.dtd">
<svg version="1.0" xmlns="http://www.w3.org/2000/svg"
 width="225.000000pt" height="225.000000pt" viewBox="0 0 225.000000 225.000000"
 preserveAspectRatio="xMidYMid meet">

<g transform="translate(0.000000,225.000000) scale(0.100000,-0.100000)"
fill="#ff3399" stroke="none">
<path d="M500 2040 c-9 -6 -10 -10 -3 -10 6 0 15 5 18 10 8 12 4 12 -15 0z"/>
<path d="M367 1939 c7 -7 15 -10 18 -7 3 3 -2 9 -12 12 -14 6 -15 5 -6 -5z"/>
<path d="M1905 1910 c10 -11 20 -20 23 -20 3 0 -3 9 -13 20 -10 11 -20 20 -23
20 -3 0 3 -9 13 -20z"/>
<path d="M1920 1865 c0 -2 6 -8 13 -14 10 -8 14 -7 14 2 0 8 -6 14 -14 14 -7
0 -13 -1 -13 -2z"/>
<path d="M245 1809 c-4 -6 -5 -12 -2 -15 2 -3 7 2 10 11 7 17 1 20 -8 4z"/>
<path d="M1298 1813 c6 -2 18 -2 25 0 6 3 1 5 -13 5 -14 0 -19 -2 -12 -5z"/>
<path d="M1628 1798 c5 -5 16 -8 23 -6 8 3 3 7 -10 11 -17 4 -21 3 -13 -5z"/>
<path d="M285 1780 c-3 -6 1 -7 9 -4 18 7 21 14 7 14 -6 0 -13 -4 -16 -10z"/>
<path d="M1056 1746 c3 -8 13 -17 22 -21 13 -5 13 -2 -3 15 -21 24 -26 25 -19
6z"/>
<path d="M1096 1738 c3 -5 10 -6 15 -3 13 9 11 12 -6 12 -8 0 -12 -4 -9 -9z"/>
<path d="M2035 1740 c-5 -8 -4 -11 2 -7 13 8 39 -20 29 -30 -4 -4 -11 -2 -15
6 -7 10 -9 10 -14 -2 -4 -10 1 -14 16 -13 14 1 24 -6 29 -19 6 -19 6 -19 7 2
1 30 -43 81 -54 63z"/>
<path d="M185 1730 c-4 -6 -1 -9 6 -8 6 2 14 -3 17 -11 3 -9 0 -11 -8 -6 -9 6
-11 4 -5 -4 10 -18 27 2 19 22 -7 19 -20 22 -29 7z"/>
<path d="M1038 1691 c-7 -10 -17 -19 -23 -20 -5 0 -11 -10 -11 -21 -1 -11 2
-17 7 -14 4 2 5 12 2 21 -4 10 -2 14 4 10 5 -3 20 5 31 18 12 14 18 25 13 25
-6 0 -16 -8 -23 -19z"/>
<path d="M960 1682 c0 -5 7 -9 15 -9 8 0 12 4 9 9 -3 4 -9 8 -15 8 -5 0 -9 -4
-9 -8z"/>
<path d="M140 1661 c0 -5 5 -13 10 -16 6 -3 10 -2 10 4 0 5 -4 13 -10 16 -5 3
-10 2 -10 -4z"/>
<path d="M964 1636 c-3 -14 -3 -33 0 -42 7 -18 -10 -55 -30 -67 -8 -4 -14 -19
-14 -32 0 -14 -4 -25 -10 -25 -5 0 -10 18 -10 40 0 33 -3 40 -20 40 -13 0 -20
-7 -20 -20 0 -11 7 -20 15 -20 8 0 15 -9 15 -20 0 -14 -5 -18 -16 -13 -11 4
-12 8 -4 13 8 5 7 9 -3 13 -9 3 -17 16 -20 29 -4 21 -4 22 -6 2 -1 -15 -9 -23
-26 -26 -21 -4 -25 -1 -25 18 l0 24 -315 0 c-245 0 -315 -3 -315 -12 0 -10 -3
-9 -9 1 -7 11 -9 11 -14 0 -3 -8 -6 -5 -6 8 -1 25 15 39 23 21 3 -7 5 -4 3 6
-2 22 -27 35 -27 14 0 -7 -10 -24 -21 -38 -20 -24 -20 -24 -9 -2 6 13 10 26 7
28 -7 8 -50 -105 -54 -143 -2 -20 -9 -45 -14 -56 -6 -11 -17 -70 -24 -132 -31
-269 33 -531 188 -760 54 -80 206 -231 286 -285 119 -79 283 -151 409 -179
l42 -9 0 399 0 399 -140 0 -140 0 0 160 0 160 141 0 140 0 -2 173 c-1 118 2
181 11 202 7 17 18 45 26 63 8 18 10 31 4 27 -6 -4 -10 5 -9 22 1 17 3 21 6
11 2 -10 9 -18 14 -18 6 0 5 10 -2 23 -17 32 -17 32 -25 3z m-824 -172 c0 -8
-4 -12 -10 -9 -5 3 -10 10 -10 16 0 5 5 9 10 9 6 0 10 -7 10 -16z m-62 -21 c1
-24 0 -25 -9 -10 -5 9 -7 22 -4 27 9 15 10 13 13 -17z m829 -55 c-2 -13 -4 -3
-4 22 0 25 2 35 4 23 2 -13 2 -33 0 -45z m-20 -80 c-2 -13 -4 -3 -4 22 0 25 2
35 4 23 2 -13 2 -33 0 -45z"/>
<path d="M2099 1658 c-6 -23 -6 -59 1 -63 4 -2 7 11 7 30 -1 29 -5 44 -8 33z"/>
<path d="M120 1620 c0 -5 5 -10 11 -10 5 0 7 5 4 10 -3 6 -8 10 -11 10 -2 0
-4 -4 -4 -10z"/>
<path d="M2120 1625 c0 -5 5 -17 10 -25 5 -8 10 -10 10 -5 0 6 -5 17 -10 25
-5 8 -10 11 -10 5z"/>
<path d="M1649 1605 c-3 -5 -6 -30 -5 -55 1 -25 -3 -49 -9 -55 -6 -6 -57 -9
-119 -8 -87 2 -115 -1 -137 -14 -16 -10 -29 -23 -29 -30 0 -7 -5 -13 -11 -13
-6 0 -9 -9 -6 -20 3 -11 1 -18 -4 -14 -5 3 -9 -52 -9 -130 l0 -136 151 0 151
0 -6 -22 c-3 -13 -15 -85 -27 -160 l-22 -138 -123 0 -124 0 0 -395 c0 -330 2
-395 14 -395 28 0 183 49 251 80 105 47 251 150 336 237 156 158 255 345 305
575 19 89 20 337 2 417 -12 50 -15 53 -29 39 -14 -15 -16 -13 -16 13 0 17 4
25 7 18 14 -22 19 8 8 45 -12 37 -12 37 -24 14 -12 -21 -13 -20 -7 13 5 35 4
36 -21 32 -19 -4 -31 0 -41 13 -13 17 -16 17 -25 4 -8 -12 -10 -11 -10 8 l0
23 -152 -3 -152 -3 -7 -25 c-6 -20 -7 -21 -8 -5 -2 21 -23 55 -35 55 -4 0 -4
-4 -1 -10 3 -5 1 -10 -4 -10 -6 0 -11 -9 -11 -20 0 -24 -21 -70 -32 -70 -4 0
-8 5 -8 10 0 6 6 10 13 10 8 0 7 4 -3 10 -13 9 -13 10 0 10 11 0 12 3 3 8 -6
4 -13 30 -15 57 -2 28 -6 46 -9 40z m-207 -139 c15 -11 12 -13 -24 -14 -35 -2
-39 0 -28 13 15 18 29 19 52 1z m195 -12 c-3 -3 -12 -4 -19 -1 -8 3 -5 6 6 6
11 1 17 -2 13 -5z m-285 -76 c-8 -8 -9 -4 -5 13 4 13 8 18 11 10 2 -7 -1 -18
-6 -23z m865 -70 c-3 -7 -5 -2 -5 12 0 14 2 19 5 13 2 -7 2 -19 0 -25z"/>
<path d="M1408 1463 c7 -3 16 -2 19 1 4 3 -2 6 -13 5 -11 0 -14 -3 -6 -6z"/>
<path d="M2123 1567 c-23 -10 -32 -37 -13 -37 6 0 10 6 10 13 0 8 7 14 15 14
18 0 20 -13 3 -20 -7 -3 -3 -4 9 -4 18 1 20 4 11 22 -6 11 -11 21 -12 21 0 1
-11 -3 -23 -9z"/>
</g>
</svg>
